# xmcd CD database file
#
# Track frame offsets:
#	150
#	6234
#	30850
#	42312
#	60982
#	71224
#	118072
#	131088
#	147961
#	163689
#	185997
#	200348
#	246640
#	255504
#
# Disc length: 3737 seconds
#
# Revision: 0
# Processed by: cddbd v1.4PL0 Copyright (c) Steve Scherf et al.
# Submitted via: CDex 1.50beta9
#
DISCID=d00e970e
DTITLE=Quetzal and Patrick Bauwens - Carnet d'Emeraude - Troisième Recueil
DYEAR=2000
DGENRE=New Age
TTITLE0=Citation
TTITLE1=Jean Pierre Catoul and Peter Hertmans - Going there
TTITLE2=Peter Gabriel - Slow water
TTITLE3=Nusrat Fateh Ali Khan - Fault line
TTITLE4=Clannad - Theme from Harry's game
TTITLE5=Ralph Vaughan Williams - Five variants of Dive and Lazarus
TTITLE6=Peter Gabriel - Sketch pad with trumpet and voice
TTITLE7=Jamshied Sharifi - Ma'na
TTITLE8=Khalil Chahine - Mektoub part II
TTITLE9=Khalil Chahine - Mektoub part III
TTITLE10=Gerry Rafferty - The right moment
TTITLE11=Gustav Malher - Adagietto sehr langsam
TTITLE12=Dmitri Bornyansky - I've cried to the Lord
TTITLE13=Paul Winter - Sea joy
EXTD=YEAR: 2000
EXTT0=
EXTT1=
EXTT2=
EXTT3=
EXTT4=
EXTT5=
EXTT6=
EXTT7=
EXTT8=
EXTT9=
EXTT10=
EXTT11=
EXTT12=
EXTT13=
PLAYORDER=
